<svg id="svg" version="1.1" viewBox="0 0 300 145.2777777777778" width="300" height="145.2777777777778" xmlns="http://www.w3.org/2000/svg"><svg xmlns="http://www.w3.org/2000/svg"><defs><clipPath id="clip-1"><rect x="0" y="0" transform="scale(0.14648,0.14645)" width="2048" height="992" fill="none"/></clipPath><linearGradient x1="125.38228" y1="67.43466" x2="166.42236" y2="66.9855" gradientUnits="userSpaceOnUse" id="color-1"><stop offset="0" stop-color="#cb8a23"/><stop offset="1" stop-color="#e3b048"/></linearGradient><linearGradient x1="121.26533" y1="67.14748" x2="163.38721" y2="89.70698" gradientUnits="userSpaceOnUse" id="color-2"><stop offset="0" stop-color="#ba710b"/><stop offset="1" stop-color="#d18c21"/></linearGradient><linearGradient x1="153.1333" y1="115.10569" x2="155.74658" y2="71.23664" gradientUnits="userSpaceOnUse" id="color-3"><stop offset="0" stop-color="#351a0d"/><stop offset="1" stop-color="#54371c"/></linearGradient></defs><g clip-path="url(#clip-1)" fill="none" fill-rule="nonzero" stroke="none" stroke-width="1" stroke-linecap="butt" stroke-linejoin="miter" stroke-miterlimit="10" stroke-dasharray="" stroke-dashoffset="0" font-family="none" font-weight="none" font-size="none" text-anchor="none" style="mix-blend-mode: normal"><path d="M0,0h78.55957h37.37563h184.06479v145.27778h-108.64746h-0.44385h-190.90869z" fill="#d5b488"/><path d="M78.55957,0h37.37563c-0.029,0.71655 -0.07148,1.4325 -0.12744,2.14745c-0.1166,-0.23208 -0.08203,-1.37237 -0.08511,-1.71513c-10.5876,0.16281 -21.5707,-0.32203 -32.08052,0.00994l-0.07544,0.12684c0.53848,0.375 1.64751,0.9615 1.63813,1.62666c-1.46411,-0.88844 -0.502,-1.35832 -3.01216,-1.18357c-0.34614,0.249 -0.25254,0.11445 -0.37427,0.49753c0.7021,-0.19161 1.01045,-0.38949 1.72354,-0.30103c0.48838,0.29452 0.33047,0.12498 0.58535,0.65372c-0.34687,0.03587 -0.74912,-0.62166 -1.04531,-0.51868c-0.50215,0.17459 -0.87554,0.55898 -1.42075,0.5146c-0.22808,-0.61496 0.2105,-0.71203 -0.02944,-1.22669c-1.11665,-0.42761 -2.34053,0.24903 -3.07222,-0.63165z" fill="#d8b88e"/><path d="M190.90869,145.27778c0.00146,-1.04052 -0.03516,-1.22432 0.50391,-2.13684l0.30029,-0.02036c0.16553,0.89525 -0.20215,1.2788 -0.36035,2.1572z" fill="#d8b88e"/><path d="M133.70273,111.07028c-2.41245,-1.31292 -4.40903,-2.97146 -6.36782,-4.89038c-7.61953,-7.46452 -10.87412,-17.93888 -9.4582,-28.42377c2.35986,-17.47536 17.92646,-31.75418 36.00513,-29.15104c5.3584,0.77164 9.75879,3.08715 12.21387,8.08928c0.56982,1.1527 1.43701,2.85137 2.4375,3.70239c3.29004,2.33938 5.80225,2.24507 8.36719,5.7764c-4.53369,0.02109 -7.46631,0.35836 -10.8457,3.67573c-1.41064,2.83804 -3.12598,5.59861 -5.24268,7.97973c-3.81445,4.29302 -9.40723,-0.48299 -12.65039,-3.00822c-7.60708,-5.92476 -17.71567,-2.7657 -21.70356,5.70669c-0.43638,0.93405 -0.84126,1.86943 -1.229,2.86806c-2.76709,10.01831 1.74653,20.32322 8.47368,27.67512z" fill="url(#color-1)"/><path d="M133.70273,111.07028c-2.41245,-1.31292 -4.40903,-2.97146 -6.36782,-4.89038c-7.61953,-7.46452 -10.87412,-17.93888 -9.4582,-28.42377c2.35986,-17.47536 17.92646,-31.75418 36.00513,-29.15104c5.3584,0.77164 9.75879,3.08715 12.21387,8.08928c0.56982,1.1527 1.43701,2.85137 2.4375,3.70239c3.29004,2.33938 5.80225,2.24507 8.36719,5.7764c-4.53369,0.02109 -7.46631,0.35836 -10.8457,3.67573c0.97705,-3.8071 0.82764,-6.73067 -1.25391,-10.2456c-1.90723,-3.15452 -4.98047,-5.43078 -8.55469,-6.33555c-5.33643,-1.35832 -11.02632,0.36773 -15.60659,3.13314c-7.58862,4.58167 -12.44795,11.94588 -14.55557,20.47392c-0.37456,1.51575 -1.18755,5.08472 -0.85488,6.52037c-2.76709,10.01831 1.74653,20.32322 8.47368,27.67512z" fill="url(#color-2)"/><path d="M154.17334,58.54973c1.64209,-0.37491 3.28271,0.63823 3.68115,2.27494c0.3999,1.63686 -0.58887,3.29086 -2.2207,3.71425c-1.07666,0.27943 -2.2207,-0.04262 -2.99268,-0.84282c-0.77344,-0.8002 -1.05469,-1.95451 -0.73682,-3.02052c0.31787,-1.066 1.18506,-1.87836 2.26904,-2.12586z" fill="#c27e16"/><path d="M179.37891,72.01062c0.32373,0.32834 0.4292,0.93845 0.53613,1.37824c3.06152,12.44351 -6.03809,21.94163 -17.75391,24.30049c-4.38135,0.88221 -7.43555,0.9588 -11.85498,0.85512c3.33398,1.35568 8.49609,2.05615 12.03516,1.48207c9.42773,-1.52952 14.60889,-6.0015 20.09473,-13.20768c-0.16846,1.77423 -0.54492,3.52255 -1.12207,5.20876c-1.96729,5.51982 -6.02051,10.04906 -11.28955,12.6172c-5.66895,2.71078 -12.65625,3.05625 -18.7251,1.62881c-2.28223,-0.53644 -5.4353,-1.71814 -7.65645,-2.50267c9.28828,6.48639 17.80781,7.33506 28.44551,3.35457c-2.24561,2.39196 -5.44043,4.4134 -8.39795,5.7868c-5.8125,2.67841 -12.40283,3.14134 -18.53145,1.30179c-6.26616,-1.86035 -11.52817,-6.14824 -14.6146,-11.90897c-2.91108,-5.50855 -4.30151,-12.53885 -2.43237,-18.59512c9.37676,10.55592 26.70439,4.54403 34.81377,-4.5682c2.05664,-2.31185 3.50391,-4.37474 5.1416,-6.99896c1.06201,2.69115 1.24951,5.64797 0.5376,8.45174c-1.30225,5.03976 -5.63672,8.09338 -10.11914,10.29773c-1.45166,0.71379 -3.16699,1.07743 -4.62598,1.94075c13.93506,-1.39962 19.56592,-9.34728 25.51904,-20.82246z" fill="url(#color-3)"/><path d="M139.22725,74.45633c7.15488,-0.09841 9.11016,5.64094 15.67119,7.87429c-3.23291,2.00123 -6.07324,3.38752 -9.84507,4.05108c-5.33687,0.70969 -13.40244,0.38033 -15.37222,-5.80525c1.75796,-3.88882 5.38711,-5.8363 9.54609,-6.12012z" fill="#492d17"/><path d="M105.11367,116.51117c0.72686,0.26947 0.47446,2.12205 0.45337,2.77639c-0.85488,-0.05668 -1.82402,0.00366 -2.68169,-0.07586c-0.60249,-0.0558 -0.5748,-0.15465 -0.88652,-0.5691c0.15996,-0.86068 0.62051,-1.54153 1.56636,-1.47167c0.37178,0.42207 0.03223,0.38575 0.17212,1.05927c0.65039,-0.28997 0.9542,-1.02925 1.37637,-1.71902z" fill="#d8b88e"/><path d="M49.46631,122.73981l0.0687,0.07484c-0.00366,0.89451 0.44517,2.55159 -1.02788,3.00514l-0.13813,-0.23827c-0.34014,-0.02607 -0.62681,0.00029 -0.87759,-0.20503c-0.17241,-1.10218 1.05161,-2.21124 1.9749,-2.63667z" fill="#d8b88e"/><path d="M3.07373,124.65639l0.49854,0.49178c0.03523,0.47611 -0.1349,0.44872 -0.54658,0.75539c-0.52169,0.38882 -0.3843,0.44462 -0.51268,1.0868l-0.21185,0.10193l-0.03085,-0.45531l-0.2099,0.17486c-0.48608,-0.1813 -1.07928,-0.70222 -1.21112,-1.21055c0.37801,-0.42119 1.64707,-0.77281 2.22442,-0.94489z" fill="#d8b88e"/><path d="M63.58799,136.47954l1.13086,0.45106c0.04146,0.96642 0.33809,2.67329 -0.54287,3.18791c-0.12129,-0.12609 -0.25986,-0.31077 -0.37266,-0.45092c0.30747,-1.20499 -0.32798,-1.97165 -0.42437,-2.93763z" fill="#d8b88e"/><path d="M57.78779,47.4165c0.43198,0.51521 0.37134,3.01642 -0.11909,3.61891l-0.49175,0.02988c-0.19614,-0.6271 0.0334,-2.24595 0.0665,-2.99343c0.01655,-0.37183 0.25342,-0.45165 0.54434,-0.65536z" fill="#d8b88e"/><path d="M275.73047,31.67597c0.70313,0.37315 0.92285,1.14084 0.50684,1.84629c-0.31787,0.53879 -0.52881,0.46234 -1.10449,0.59429l-0.39551,-0.05463l-0.17285,-0.23827c0.17871,-0.67147 0.75439,-0.95046 1.16602,-2.14768z" fill="#d8b88e"/><path d="M61.48931,12.34176c0.56689,0.61942 -0.72451,2.26901 -1.13921,2.75805c-0.173,-0.44565 -0.21577,-1.44134 -0.25913,-1.9569z" fill="#d8b88e"/><path d="M61.72207,4.41274c0.96797,0.407 0.7125,1.202 0.32666,1.97849c-0.15161,0.30519 -0.46626,0.29208 -0.81006,0.38723c-0.27642,-0.16111 -0.26646,-0.26026 -0.4377,-0.56916c0.02021,-0.4077 0.60806,-0.96021 0.92109,-1.79655z" fill="#d8b88e"/><path d="M2.96829,113.28079c0.13228,0.10676 0.2358,0.24472 0.34816,0.37579c0.11736,0.93215 0.32682,1.92405 -0.59027,2.34817c-0.30801,-0.19141 -0.3686,-0.21689 -0.51081,-0.54582c-0.00242,-0.70281 0.45794,-1.46083 0.75292,-2.17814z" fill="#d8b88e"/><path d="M21.64102,128.78714c0.29312,0.22539 1.53721,2.47939 1.45137,2.86938c-1.39907,-0.16812 -1.74785,-1.67655 -1.45137,-2.86938z" fill="#d8b88e"/><path d="M105.24302,114.3796c0.37983,0.14777 0.25928,0.0454 0.46729,0.37476c-0.09375,0.44535 -0.69346,1.031 -1.02979,1.95451c-0.30645,-0.26976 -0.47065,-0.36598 -0.54551,-0.77604c0.12905,-0.74997 0.53701,-1.0228 1.10801,-1.55324z" fill="#d8b88e"/><path d="M34.7896,66.41406l0.42158,0.04994c0.45249,0.72815 0.06973,1.40298 -0.53306,1.89593c-0.31377,-0.24179 -0.34922,-0.28894 -0.56733,-0.62065c0.06563,-0.63251 0.28535,-0.76271 0.67881,-1.32522z" fill="#d8b88e"/><path d="M224.52832,29.48641c0.23145,0.04408 0.43652,0.23022 0.63135,0.37564c-0.30908,1.0045 -1.51758,0.82524 -2.39209,0.76915l-0.28857,-0.03617c0.60791,-0.29583 1.37842,-0.76988 2.04932,-1.10862z" fill="#d8b88e"/><path d="M59.31533,138.35219l0.03428,0.30623c0.50449,-0.19785 0.28755,-0.1734 0.82324,-0.09329c0.36548,0.20225 0.47944,0.64159 0.65801,1.05517c-0.64556,0.25936 -1.38457,0.24794 -1.76206,-0.39658z" fill="#d8b88e"/><path d="M73.70566,56.75631l0.35361,0.00571c0.43564,0.24911 0.60498,0.31267 0.89399,0.72624l-0.06709,0.22978l-0.35464,0.16168c-0.06592,0.0164 -0.13213,0.03149 -0.19863,0.0454c-0.48779,0.10178 -0.80947,0.14367 -1.20044,-0.10793c0.04702,-0.52253 0.20684,-0.56603 0.57319,-1.06088z" fill="#d8b88e"/><path d="M19.83267,25.82034c1.09146,0.19566 0.63486,1.41485 0.29048,2.03506c-0.36152,-0.35075 -0.59766,-0.52736 -0.75996,-1.00435c0.03604,-0.51697 0.15571,-0.62051 0.46948,-1.03071z" fill="#d8b88e"/><path d="M52.18726,75.9485c0.52793,0.12155 0.72964,0.06268 1.32583,0.24442c0.22617,0.50686 0.11323,0.50276 -0.01318,1.16222l-0.21914,0.22905l-0.2543,-0.03442c-0.42949,-0.39702 -0.62139,-1.04579 -0.83921,-1.60128z" fill="#d8b88e"/><path d="M16.81582,19.21299l0.19409,0.19243l-0.06753,0.31472c-0.40503,0.46849 -0.94058,0.70032 -1.48872,0.9878c-0.30439,-0.49236 -0.26543,-0.29729 -0.27817,-0.79947c0.27378,-0.3197 1.0875,-0.46424 1.64033,-0.69549z" fill="#d8b88e"/><path d="M36.79424,49.68954c1.01279,0.48035 1.31528,0.89993 1.07183,1.95173c-0.0895,0.00073 -0.32666,-0.05741 -0.42788,-0.07864c-0.54844,-0.56705 -0.59707,-1.10496 -0.64395,-1.87309z" fill="#d8b88e"/><path d="M35.89731,45.00492c0.46904,-0.0164 1.00972,-0.09578 1.39541,0.14352c0.10093,0.42866 0.11191,0.24545 -0.12114,0.71482c-0.63164,0.04335 -1.15327,0.08128 -1.62583,-0.37594c0.07881,-0.32673 0.04629,-0.21997 0.35156,-0.4824z" fill="#d8b88e"/><path d="M27.23774,106.23862c0.19175,0.10427 0.10781,0.31252 0.16318,0.35382c0.72041,0.53557 0.91597,0.3796 1.09102,1.28656c-0.51812,0.28279 -0.36577,0.29392 -0.89106,0.2579c-0.37852,-0.52531 -0.3167,-1.1918 -0.36313,-1.89828z" fill="#d8b88e"/><path d="M49.40347,47.79302c0.63354,0.10618 0.83569,-0.11716 1.5416,0.0268c0.10503,0.41269 -0.0082,0.4064 -0.27261,0.88089c-0.06533,0.17457 -0.11997,0.17808 -0.2811,0.28821c-0.4749,-0.17193 -0.85298,-0.72156 -0.98789,-1.19591z" fill="#d8b88e"/><path d="M71.88838,55.97412c0.63882,0.56793 0.83232,1.51048 0.38862,2.24565c-0.26777,-0.08435 -0.29297,-0.11584 -0.52192,-0.28587c-0.17871,-0.57511 0.02563,-1.34499 0.1333,-1.95979z" fill="#d8b88e"/><path d="M289.36084,141.84998l0.21533,0.22597c0.14355,0.63603 0.11719,0.8292 0.07031,1.48749l-0.23291,0.18028c-0.34131,-0.34547 -0.38818,-0.39761 -0.61523,-0.83608c0.08057,-0.61099 0.12744,-0.50159 0.5625,-1.05766z" fill="#d8b88e"/><path d="M18.79893,109.06099c0.35405,0.07161 0.22368,-0.01948 0.41938,0.25731c-0.07866,0.44901 -0.69287,1.04536 -1.01953,1.41573l-0.07222,0.04086l-0.14517,-0.13371c-0.08818,-0.86801 0.21152,-1.01841 0.81753,-1.58019z" fill="#d8b88e"/><path d="M2.96585,106.93514c0.34491,0.01816 0.1875,-0.03339 0.47994,0.18204l-0.02704,0.10134l-0.19223,-0.20034l0.15123,0.34445c-0.43342,0.4042 -0.70862,0.42207 -1.29524,0.5527l-0.41342,-0.00893l-0.0854,-0.17984c0.3069,-0.32658 0.9567,-0.58887 1.38217,-0.79141z" fill="#d8b88e"/><path d="M10.00179,28.50871l0.22427,0.27445c0.12816,0.93991 0.00529,1.42905 -0.39759,2.27773c-0.50474,-0.99424 -0.1784,-1.43594 0.17332,-2.55217z" fill="#d8b88e"/><path d="M113.14775,136.66817c0.47373,0.18716 0.32651,0.05682 0.56909,0.4764c-0.03047,0.46219 -0.23862,0.67791 -0.51006,1.04565c-0.46699,-0.23373 -0.31948,-0.09065 -0.56982,-0.53059c0.00513,-0.44814 0.22852,-0.64877 0.51079,-0.99146z" fill="#d8b88e"/><path d="M224.61035,49.74812l0.19629,0.04393c0.26953,0.26434 0.20068,0.1239 0.22998,0.53234c-0.19922,0.49031 -0.31787,0.53352 -0.76465,0.81001c-0.29004,-0.16227 -0.2959,-0.17105 -0.4541,-0.47259c0.17139,-0.4991 0.33398,-0.5114 0.79248,-0.9137z" fill="#d8b88e"/><path d="M66.93647,124.90989c0.4481,0.2434 0.66255,0.41577 0.62095,0.9033l-0.41118,0.30959c-0.53628,-0.15568 -0.54771,-0.07191 -0.88477,-0.42309c0.14663,-0.47289 0.22427,-0.41372 0.675,-0.7898z" fill="#d8b88e"/><path d="M40.22944,63.46691l0.54756,0.3443c0.26807,0.56163 0.18823,0.40112 0.09961,1.09866c-0.38452,-0.02826 -0.42773,-0.05331 -0.75352,-0.26244c-0.16919,-0.39834 -0.01157,-0.7381 0.10635,-1.18053z" fill="#d8b88e"/><path d="M34.5457,88.23399c0.33809,0.11994 0.39287,0.14337 0.67983,0.35734c-0.02388,0.48182 -0.18472,0.49353 -0.59048,0.95207c-0.21489,0.05492 -0.11938,0.03163 -0.38394,-0.0517c-0.10181,-0.41284 0.13315,-0.84955 0.29458,-1.25771z" fill="#d8b88e"/><path d="M123.68613,54.58593c0.54858,-0.01259 0.62739,-0.01186 1.14976,0.16651l0.10269,0.21528l-0.33442,0.11145c-0.37163,0.23271 -0.58096,0.41914 -1.02217,0.37389c-0.16685,-0.41914 -0.09932,-0.32468 0.10415,-0.86713z" fill="#d8b88e"/><path d="M28.87251,109.02219c0.11089,0.03822 0.27217,0.13239 0.38159,0.19024c0.11016,0.42763 -0.18574,0.85512 -0.39478,1.26532c-0.17798,-0.13752 -0.26382,-0.26859 -0.3999,-0.44433c0.02227,-0.57218 0.06343,-0.46146 0.41309,-1.01123z" fill="#d8b88e"/></g></svg></svg>